<svg width="51" height="63" viewBox="0 0 51 63" fill="none" xmlns="http://www.w3.org/2000/svg">
<path fill-rule="evenodd" clip-rule="evenodd" d="M36.6435 52.5326H35.1443V39.9167C35.1418 39.7262 35.1184 34.9723 38.242 30.8401C39.4983 29.1779 40.3633 27.5748 40.8865 25.9394C42.3107 21.4896 44.317 10.4331 32.2265 3.88524C32.1071 3.82292 19.1991 -2.75076 9.48912 6.27609C7.64374 7.99158 6.34449 10.1134 5.73035 12.412C5.13669 14.6352 4.98428 17.023 5.27761 19.5101C5.31359 19.8156 5.36651 20.1176 5.41953 20.4216L5.43252 20.497C5.59793 21.448 5.8148 23.9189 4.2612 26.3148L1.57175 30.2757C1.52178 30.4146 1.44633 30.7267 1.55177 30.9283C1.6637 31.1426 2.01295 31.2429 2.23032 31.286C2.40177 31.3037 3.00892 31.3807 3.52313 31.6037C3.88642 31.7612 4.15576 32.0885 4.24521 32.4791C4.33366 32.8672 4.23371 33.2791 3.97786 33.5801C3.92839 33.6383 3.89841 33.6849 3.88192 33.7169C3.91035 33.7432 3.96187 33.7827 4.04982 33.8309C4.35464 33.9996 4.57397 34.2767 4.66696 34.6121C4.75891 34.9465 4.71444 35.2966 4.54104 35.599C4.45109 35.7551 4.44759 35.8341 4.44759 35.8463V35.8458C4.45409 35.8458 4.54004 35.942 4.85435 36.0373C5.48149 36.2258 5.86277 36.851 5.73934 37.4919C5.61292 38.1525 5.27111 40.3954 6.19508 41.5136C6.59385 41.9959 7.2025 42.2178 8.04951 42.2188L11.2016 41.9073C13.8342 41.6484 16.2518 43.4905 16.7125 46.1038C17.0113 47.799 17.1627 49.9619 17.1627 52.5326H15.6636C15.6636 50.051 15.5202 47.9784 15.2368 46.3708C14.9125 44.5332 13.203 43.2357 11.3476 43.4201L8.10248 43.7383C6.77025 43.7621 5.74834 43.339 5.04574 42.4889C3.84944 41.0414 3.99385 38.7828 4.22672 37.427C3.62657 37.2061 3.23179 36.8601 3.0509 36.396C2.93497 36.0991 2.86501 35.6345 3.13585 35.0463C2.61715 34.6972 2.44175 34.2894 2.38828 33.994C2.33981 33.7265 2.35125 33.3384 2.6181 32.8966C2.38628 32.8368 2.15442 32.8049 2.05747 32.7963L1.99051 32.7867C0.914584 32.5881 0.432413 32.0439 0.218037 31.6219C-0.25419 30.6952 0.180059 29.6987 0.23103 29.5882L0.292494 29.4798L3.01742 25.4662C4.2667 23.5389 4.0903 21.5331 3.95637 20.761L3.94283 20.6855C3.88542 20.3542 3.82845 20.0243 3.78897 19.69C3.4731 17.0088 3.63956 14.4264 4.28369 12.0148C4.97179 9.43804 6.42145 7.06594 8.47626 5.1559C18.9666 -4.59646 32.7852 2.46766 32.9236 2.5396C46.3898 9.83221 43.5145 22.6528 42.3127 26.4085C41.736 28.2112 40.7936 29.9632 39.4324 31.7643C36.6335 35.4663 36.643 39.8645 36.6435 39.9085V52.5326Z" transform="translate(1.97021 10.4673)" fill="#411070"/>
<path fill-rule="evenodd" clip-rule="evenodd" d="M8.87952 23.7641C8.98296 23.7641 9.08689 23.7854 9.18384 23.8294C9.40671 23.9303 9.56762 24.1339 9.61459 24.3761C9.75951 25.1188 10.3251 25.701 11.0558 25.8585C11.7838 26.0141 12.5349 25.7177 12.9656 25.0981C13.1066 24.8969 13.3349 24.7769 13.5783 24.7769C13.8222 24.7769 14.0505 24.8969 14.1909 25.0986C14.6212 25.7177 15.3703 26.0156 16.1013 25.8585C16.8314 25.701 17.3971 25.1188 17.5415 24.3761C17.589 24.1339 17.7494 23.9303 17.9717 23.8294C18.1946 23.7291 18.4519 23.7448 18.6609 23.871C19.3025 24.2591 20.1065 24.2226 20.7111 23.7772C21.3148 23.3324 21.5982 22.5679 21.4323 21.8297C21.3783 21.5891 21.4432 21.3362 21.6062 21.1523C21.7696 20.9694 22.0094 20.8777 22.2523 20.9066C22.9939 20.9938 23.7144 20.631 24.0877 19.9754C24.4605 19.3198 24.4125 18.5051 23.9653 17.8982C23.8194 17.7011 23.7774 17.4432 23.8524 17.2081C23.9278 16.973 24.1112 16.7901 24.3436 16.7172C25.0577 16.4932 25.5689 15.8625 25.6468 15.1091C25.7253 14.3567 25.354 13.6317 24.7019 13.2629C24.489 13.1423 24.3476 12.9245 24.3221 12.6792C24.2966 12.433 24.3905 12.1903 24.5739 12.0272C25.1361 11.5287 25.3505 10.7408 25.1196 10.0214C24.8888 9.30196 24.2591 8.79278 23.515 8.72439C23.2721 8.70159 23.0558 8.56125 22.9339 8.34745C22.812 8.13364 22.8005 7.87272 22.9024 7.64878C23.2162 6.96076 23.0958 6.15317 22.5966 5.5908C22.0969 5.02843 21.3173 4.82273 20.6097 5.06693C20.3799 5.14698 20.125 5.10747 19.9276 4.96206C19.7307 4.81716 19.6153 4.5836 19.6188 4.33686C19.6297 3.57994 19.196 2.89141 18.5139 2.58388C17.8323 2.27584 17.0378 2.4101 16.4896 2.92434C16.3107 3.09255 16.0624 3.16145 15.8245 3.10977C15.5861 3.0586 15.3872 2.89293 15.2913 2.66595C14.9969 1.96983 14.3244 1.51993 13.5783 1.51993C12.8317 1.51993 12.1596 1.96983 11.8653 2.66595C11.7693 2.89293 11.5705 3.0586 11.3321 3.10977C11.0942 3.16145 10.8459 3.09255 10.667 2.92434C10.1193 2.4101 9.32476 2.27584 8.6426 2.58388C7.96055 2.89141 7.5268 3.57994 7.53729 4.33737C7.54079 4.5841 7.42536 4.81716 7.22847 4.96256C7.03108 5.10746 6.77673 5.14597 6.54636 5.06693C5.83977 4.82222 5.05972 5.02893 4.56001 5.5908C4.0608 6.15317 3.94037 6.96076 4.25369 7.64878C4.35613 7.87272 4.34414 8.13364 4.22221 8.34745C4.10078 8.56125 3.8839 8.70159 3.64104 8.72439C2.89748 8.79278 2.26784 9.30196 2.03697 10.0214C1.80611 10.7413 2.02048 11.5287 2.58266 12.0272C2.76605 12.1903 2.86 12.433 2.83451 12.6792C2.80903 12.9245 2.66761 13.1423 2.45468 13.2629C1.80211 13.6317 1.43132 14.3567 1.50978 15.1091C1.58723 15.8625 2.09894 16.4932 2.81252 16.7172C3.04539 16.7901 3.22878 16.973 3.30424 17.2081C3.3792 17.4432 3.33722 17.7011 3.19126 17.8982C2.74356 18.5051 2.69559 19.3203 3.06888 19.9754C3.44166 20.6305 4.16274 20.9953 4.90431 20.9066C5.14617 20.8772 5.38703 20.9689 5.54994 21.1523C5.71285 21.3362 5.77781 21.5885 5.72384 21.8292C5.55839 22.5679 5.84177 23.3329 6.44542 23.7772C7.04907 24.2226 7.85411 24.2591 8.49524 23.871C8.61317 23.8 8.74609 23.7641 8.87952 23.7641ZM11.444 27.42C11.2117 27.42 10.9773 27.3952 10.7434 27.345C9.72603 27.1251 8.88551 26.4493 8.43527 25.5358C7.46333 25.8079 6.40545 25.627 5.56443 25.0074C4.72242 24.3872 4.22621 23.4231 4.18123 22.4022C3.18476 22.2502 2.29078 21.6488 1.77063 20.7354C1.25043 19.8219 1.18347 18.7367 1.55225 17.7857C0.702744 17.236 0.127577 16.3174 0.0185901 15.2682C-0.0902969 14.2194 0.284487 13.2001 1.00257 12.4837C0.446893 11.631 0.289983 10.5554 0.611297 9.55173C0.932611 8.54858 1.68368 7.7719 2.62713 7.4137C2.46173 6.40548 2.74956 5.35724 3.44616 4.57397C4.14176 3.79019 5.13218 3.38944 6.1456 3.45176C6.39895 2.46279 7.08206 1.6243 8.033 1.19568C8.98346 0.766043 10.0553 0.812148 10.9493 1.28333C11.5775 0.48435 12.5379 -4.32922e-07 13.5783 -4.32922e-07C14.6182 -4.32922e-07 15.5791 0.48435 16.2072 1.28333C17.1018 0.812148 18.1731 0.765537 19.1241 1.19568C20.074 1.6243 20.7576 2.46279 21.011 3.45176C22.0124 3.38995 23.0143 3.79019 23.7104 4.57397C24.4065 5.35724 24.6949 6.40548 24.529 7.4137C25.4729 7.7719 26.224 8.54858 26.5453 9.55173C26.8666 10.5549 26.7092 11.631 26.154 12.4837C26.8726 13.2001 27.2469 14.2194 27.138 15.2687C27.029 16.3174 26.4538 17.236 25.6043 17.7857C25.9726 18.7362 25.9062 19.8214 25.386 20.7354C24.8658 21.6488 23.9718 22.2502 22.9754 22.4022C22.9304 23.4231 22.4342 24.3867 21.5927 25.0074C20.7506 25.6265 19.6928 25.8079 18.7213 25.5358C18.271 26.4493 17.4306 27.1251 16.4132 27.345C15.3942 27.5649 14.3563 27.2928 13.5783 26.6438C12.9786 27.1439 12.2246 27.42 11.444 27.42Z" transform="translate(11.2363 15.8687)" fill="#56CCF2"/>
<path fill-rule="evenodd" clip-rule="evenodd" d="M0.749567 16.0271C0.335806 16.0271 6.09999e-07 15.6866 6.09999e-07 15.2671C6.09999e-07 14.8476 0.335806 14.5071 0.749567 14.5071C1.67753 14.5071 2.43209 13.7421 2.43209 12.8018C2.43209 12.5454 2.37463 12.2956 2.26214 12.06C2.13626 11.7971 2.1697 11.4845 2.34914 11.256C2.52804 11.0275 2.82037 10.9216 3.10121 10.987C3.47749 11.0726 3.82879 11.0432 4.17608 10.8953C4.75775 10.649 5.1945 10.1328 5.31693 9.5476C5.38988 9.19954 5.3639 8.85147 5.23997 8.51304C5.15302 8.2739 5.189 8.0069 5.33741 7.8012C5.48483 7.595 5.72269 7.4805 5.97604 7.48962L6.10697 7.49722C6.19792 7.49722 6.28836 7.49266 6.37781 7.48455C7.12438 7.41463 7.67956 6.92876 7.86195 6.184C8.00937 5.58211 7.89144 4.68636 7.07186 4.14324C5.69521 3.23027 4.93565 2.07259 4.87618 0.795348C4.85669 0.375848 5.17601 0.0201844 5.58927 0.00042534C5.99698 -0.013254 6.35432 0.304412 6.37381 0.723405C6.41029 1.50465 6.92095 2.22712 7.89194 2.87056C9.10773 3.67713 9.66741 5.12106 9.31661 6.55081C9.00629 7.81741 8.07633 8.71113 6.85054 8.94976C6.86953 9.25273 6.84754 9.55723 6.78358 9.86324C6.55721 10.9454 5.79865 11.8554 4.75475 12.2977C4.48191 12.4132 4.20307 12.4897 3.91973 12.5277C3.92723 12.6184 3.93123 12.7096 3.93123 12.8018C3.93123 14.5801 2.50405 16.0271 0.749567 16.0271Z" transform="translate(16.7877 17.4756)" fill="#56CCF2"/>
<path fill-rule="evenodd" clip-rule="evenodd" d="M3.86113 4.75877C3.77817 4.75877 3.69422 4.7451 3.61177 4.7152C3.50533 4.67721 0.998282 3.75106 0.0433342 1.01317C-0.0951357 0.617984 0.109247 0.183792 0.499571 0.0434523C0.889846 -0.0958744 1.3181 0.110835 1.45652 0.506522C2.16761 2.54424 4.09499 3.27634 4.11448 3.28343C4.50225 3.42681 4.70464 3.861 4.56522 4.25517C4.45578 4.56524 4.16795 4.75877 3.86113 4.75877Z" transform="translate(19.0331 21.7344)" fill="#56CCF2"/>
<path fill-rule="evenodd" clip-rule="evenodd" d="M2.43262 5.42136C1.82047 5.42136 1.18084 5.31142 0.516225 5.09052C0.122952 4.9593 -0.0914738 4.53068 0.0375017 4.13196C0.166927 3.73221 0.590681 3.51689 0.983404 3.64609C2.10231 4.01796 3.10068 3.97794 3.95274 3.52905C5.60628 2.65712 6.24986 0.561138 6.25591 0.539859C6.37584 0.138091 6.79409 -0.0893912 7.19081 0.0332163C7.58713 0.154811 7.81051 0.579378 7.69053 0.981146C7.65709 1.0921 6.85106 3.71347 4.64484 4.87723C3.95773 5.23998 3.21816 5.42136 2.43262 5.42136Z" transform="translate(24.6317 19.4556)" fill="#56CCF2"/>
<path fill-rule="evenodd" clip-rule="evenodd" d="M1.05858 11.3439C0.753253 11.3439 0.466419 11.1534 0.354983 10.8459C-0.591969 8.22855 0.569859 5.9522 1.34641 4.82847C1.82608 4.13386 2.3993 3.57706 3.05042 3.17428C5.24166 1.818 7.55732 2.32971 8.74908 2.75934C9.69608 0.461715 11.8203 -0.065699 12.9117 0.00624424C13.325 0.0315764 13.6393 0.391798 13.6143 0.810791C13.5888 1.22826 13.237 1.54086 12.8248 1.52364C12.5884 1.50793 10.5326 1.49223 9.93394 3.96059C9.87897 4.18858 9.72306 4.37806 9.51119 4.47382C9.29981 4.56957 9.05695 4.56096 8.85207 4.4495C8.82708 4.43582 6.15313 3.03445 3.83097 4.47179C3.3577 4.76463 2.93499 5.17754 2.5742 5.7004C1.83063 6.77702 1.08606 8.45198 1.76217 10.3225C1.90509 10.7167 1.7057 11.1529 1.31693 11.2973C1.23148 11.3292 1.14453 11.3439 1.05858 11.3439Z" transform="translate(23.4377 27.7031)" fill="#56CCF2"/>
<path fill-rule="evenodd" clip-rule="evenodd" d="M0.751916 8.62258C0.34665 8.62258 0.012843 8.29478 0.0028488 7.88136C-0.156559 1.32794 6.42713 0.0248522 6.49409 0.0126927C6.90236 -0.0633037 7.29163 0.209776 7.36659 0.623196C7.44154 1.0351 7.1727 1.43129 6.76594 1.50729C6.53557 1.55187 1.37406 2.60468 1.50148 7.84387C1.51198 8.26337 1.18466 8.61194 0.770904 8.62258C0.764408 8.62258 0.758412 8.62258 0.751916 8.62258Z" transform="translate(28.2478 22.936)" fill="#56CCF2"/>
<path fill-rule="evenodd" clip-rule="evenodd" d="M0.7491 4.23906C0.584196 4.23906 0.418291 4.18434 0.279321 4.07085C-0.0429423 3.80791 -0.0939128 3.32913 0.165937 3.00235C0.201416 2.95827 3.75486 -1.41355 9.11526 0.471666C9.50653 0.608966 9.71391 1.04214 9.57849 1.43834C9.44257 1.83504 9.01582 2.04479 8.62454 1.90749C4.24808 0.368817 1.36225 3.91987 1.33326 3.95635C1.18535 4.14229 0.968473 4.23906 0.7491 4.23906Z" transform="translate(15.4795 34.0503)" fill="#56CCF2"/>
<path fill-rule="evenodd" clip-rule="evenodd" d="M2.21374 6.7993C2.06982 6.7993 1.92441 6.75725 1.79598 6.66858C1.72302 6.61792 0.00851541 5.41109 2.03217e-05 3.07041C-0.00397737 1.95782 0.590178 0.92883 1.54962 0.38419C2.48758 -0.147785 3.58744 -0.126 4.49242 0.44144L4.55339 0.480449C4.89919 0.710465 4.99563 1.18164 4.76876 1.53224C4.54189 1.88284 4.07766 1.98214 3.73086 1.75111C3.26313 1.45776 2.74443 1.44814 2.2817 1.71108C1.78948 1.98974 1.49715 2.49587 1.49915 3.06483C1.5046 4.58577 2.59647 5.3812 2.64299 5.41413C2.9798 5.65428 3.06525 6.12597 2.83138 6.46947C2.68547 6.68378 2.4516 6.7993 2.21374 6.7993Z" transform="translate(27.2961 34.3525)" fill="#56CCF2"/>
<path fill-rule="evenodd" clip-rule="evenodd" d="M4.39171 5.51798C4.00643 5.51798 3.67912 5.21906 3.64564 4.82287C3.39424 1.84178 0.783748 1.52817 0.672862 1.51652C0.263099 1.47294 -0.0372775 1.10158 0.00374876 0.685116C0.0446751 0.269162 0.411014 -0.0398905 0.817279 0.00418741C2.18649 0.133888 4.85145 1.28194 5.13928 4.69317C5.17426 5.11165 4.86894 5.47947 4.45667 5.51494C4.43469 5.51697 4.41315 5.51798 4.39171 5.51798Z" transform="translate(21.5338 27.5532)" fill="#56CCF2"/>
<path fill-rule="evenodd" clip-rule="evenodd" d="M3.21307 3.47563C3.10613 3.47563 2.99719 3.45232 2.89375 3.40267C2.82779 3.37075 1.2557 2.60977 0.165328 1.23627C-0.094022 0.908975 -0.0425518 0.430704 0.279762 0.16725C0.602075 -0.0951913 1.0743 -0.0430071 1.33365 0.283271C2.20965 1.38725 3.51989 2.02156 3.53338 2.02815C3.90766 2.2075 4.06807 2.65993 3.89167 3.03941C3.76375 3.31451 3.4939 3.47563 3.21307 3.47563Z" transform="translate(16.5105 26.4883)" fill="#56CCF2"/>
<path fill-rule="evenodd" clip-rule="evenodd" d="M9.45498e-07 5.74989H1.49913V0H9.45498e-07V5.74989Z" transform="translate(24.7062)" fill="#56CCF2"/>
<path fill-rule="evenodd" clip-rule="evenodd" d="M2.08629 6.3305L-2.82124e-07 0.519815L1.40919 -2.70576e-08L3.49498 5.81119L2.08629 6.3305Z" transform="translate(14.8999 1.06689)" fill="#56CCF2"/>
<path fill-rule="evenodd" clip-rule="evenodd" d="M3.81679 5.58877L-2.09687e-07 0.976807L1.14834 2.16461e-07L4.96513 4.61197L3.81679 5.58877Z" transform="translate(6.02893 5.58691)" fill="#56CCF2"/>
<path fill-rule="evenodd" clip-rule="evenodd" d="M5.40188 4.47821L0 1.31626L0.749566 -1.15961e-07L6.15144 3.16196L5.40188 4.47821Z" transform="translate(0 11.7744)" fill="#56CCF2"/>
<path fill-rule="evenodd" clip-rule="evenodd" d="M0.749566 4.02224L-1.22e-07 2.70648L4.62382 1.85538e-07L5.37339 1.31626L0.749566 4.02224Z" transform="translate(45.6266 13.4468)" fill="#56CCF2"/>
<path fill-rule="evenodd" clip-rule="evenodd" d="M1.14834 5.44742L-4.26999e-07 4.47112L3.69986 2.12596e-07L4.84815 0.976807L1.14834 5.44742Z" transform="translate(40.3872 6.23682)" fill="#56CCF2"/>
<path fill-rule="evenodd" clip-rule="evenodd" d="M1.40868 6.29605L-4.26999e-07 5.77674L2.0733 7.73075e-09L3.48249 0.519309L1.40868 6.29605Z" transform="translate(32.5167 1.5498)" fill="#56CCF2"/>
</svg>
