<svg width="45" height="68" viewBox="0 0 45 68" fill="none" xmlns="http://www.w3.org/2000/svg">
<path fill-rule="evenodd" clip-rule="evenodd" d="M8.64857 4.56695H7.00123V4.35461C7.00123 2.86824 5.79867 1.6589 4.32154 1.6589C2.84986 1.6589 1.64735 2.86824 1.64735 4.35461V4.56695H-8.37884e-07V4.35461C-8.37884e-07 1.95308 1.93838 0 4.32154 0C6.71014 0 8.64857 1.95308 8.64857 4.35461V4.56695Z" transform="translate(18.1758)" fill="#411070"/>
<path fill-rule="evenodd" clip-rule="evenodd" d="M-5.02731e-07 0.982069V8.41229C-5.02731e-07 9.11455 0.56559 9.68356 1.26297 9.68356H1.7681C2.39964 9.68356 2.93772 9.21022 3.02014 8.57707L3.03661 8.41892C3.32764 6.20263 5.20007 4.54484 7.42405 4.54484C9.64248 4.54484 11.5149 6.20263 11.806 8.41948L11.8225 8.57652C11.9048 9.21022 12.443 9.68356 13.0745 9.68356C13.7718 9.68356 14.3374 9.11455 14.3374 8.41229V0.982069C14.3374 0.440162 13.9036 -9.70325e-08 13.3654 -9.70325e-08H0.971935C0.433801 -9.70325e-08 -5.02731e-07 0.440162 -5.02731e-07 0.982069Z" transform="translate(15.0787 4.56689)" fill="#56CCF2"/>
<path fill-rule="evenodd" clip-rule="evenodd" d="M40.7609 61.2892H4.23918C1.89994 61.2892 0 59.3737 0 57.0192V4.27001C0 1.91548 1.89994 -1.7719e-07 4.23918 -1.7719e-07H15.0787V1.6589H4.23918C2.80598 1.6589 1.64735 2.83008 1.64735 4.27001V57.0192C1.64735 58.4591 2.80598 59.6303 4.23918 59.6303H40.7609C42.1941 59.6303 43.3527 58.4591 43.3527 57.0192V4.27001C43.3527 2.83008 42.1941 1.6589 40.7609 1.6589H29.4161V-1.7719e-07H40.7609C43.1001 -1.7719e-07 45 1.91548 45 4.27001V57.0192C45 59.3737 43.1001 61.2892 40.7609 61.2892Z" transform="translate(0 6.71094)" fill="#411070"/>
<path fill-rule="evenodd" clip-rule="evenodd" d="M-8.91509e-07 -1.99127e-06H7.2099L-8.91509e-07 7.26267V-1.99127e-06Z" transform="translate(32.7053 55.6152)" fill="#56CCF2"/>
<path fill-rule="evenodd" clip-rule="evenodd" d="M25.7755 51.0958H2.09471e-08V3.54379e-07H8.84071V1.6589H1.64735V49.4369H24.1282V40.2626H33.238V1.6589H26.0446V3.54379e-07H34.8853V41.9215H25.7755V51.0958Z" transform="translate(5.05737 11.8076)" fill="#411070"/>
<path fill-rule="evenodd" clip-rule="evenodd" d="M1.16962 5.99361L3.35154e-07 4.82076L4.78829 -9.95637e-07L5.95242 1.17284L1.16962 5.99361Z" transform="translate(12.2782 34.7197)" fill="#411070"/>
<path fill-rule="evenodd" clip-rule="evenodd" d="M4.78829 5.99361L3.35154e-07 1.17284L1.16962 -9.95637e-07L5.95242 4.82076L4.78829 5.99361Z" transform="translate(12.2782 34.7197)" fill="#411070"/>
<path fill-rule="evenodd" clip-rule="evenodd" d="M1.16962 5.99361L3.35154e-07 4.82077L4.78829 3.71255e-07L5.95242 1.17284L1.16962 5.99361Z" transform="translate(12.2782 20.6514)" fill="#411070"/>
<path fill-rule="evenodd" clip-rule="evenodd" d="M4.78829 5.99361L3.35154e-07 1.17284L1.16962 3.71255e-07L5.95242 4.82077L4.78829 5.99361Z" transform="translate(12.2782 20.6514)" fill="#411070"/>
<path fill-rule="evenodd" clip-rule="evenodd" d="M0.988355 19.9339L-1.25683e-07 18.6079C5.52405 14.4352 9.50514 10.6579 10.4661 -1.35002e-06L12.108 0.149855C11.0866 11.4663 6.66627 15.6462 0.988355 19.9339Z" transform="translate(17.1544 38.8101)" fill="#411070"/>
<path fill-rule="evenodd" clip-rule="evenodd" d="M3.45943 -7.59384e-07L6.16108 7.75204L3.16835 5.79393L-8.37884e-08 7.44072L3.45943 -7.59384e-07Z" transform="translate(25.21 33.4902)" fill="#411070"/>
<path fill-rule="evenodd" clip-rule="evenodd" d="M6.09519 3.06897C6.09519 4.76381 4.72789 6.13793 3.04759 6.13793C1.36181 6.13793 -8.37884e-08 4.76381 -8.37884e-08 3.06897C-8.37884e-08 1.37412 1.36181 8.4376e-08 3.04759 8.4376e-08C4.72789 8.4376e-08 6.09519 1.37412 6.09519 3.06897Z" transform="translate(25.6218 20.5786)" fill="#56CCF2"/>
</svg>
