<svg width="55" height="42" viewBox="0 0 55 42" fill="none" xmlns="http://www.w3.org/2000/svg">
<path fill-rule="evenodd" clip-rule="evenodd" d="M53.5924 1.15824V6.14106L26.7985 19.9926L-1.20573e-08 6.14106V1.15824C-1.20573e-08 0.685486 0.224765 0.264787 0.571278 1.98374e-08L26.7985 13.549L53.0211 1.98374e-08C53.3676 0.264787 53.5924 0.685486 53.5924 1.15824Z" transform="translate(0.703369 1.00732)" fill="#56CCF2"/>
<path fill-rule="evenodd" clip-rule="evenodd" d="M2.14744 1.41825C1.73771 1.41825 1.40478 1.75489 1.40478 2.16803V39.832C1.40478 40.2452 1.73771 40.5818 2.14744 40.5818H52.8526C53.2623 40.5818 53.5952 40.2452 53.5952 39.832V2.16803C53.5952 1.75489 53.2623 1.41825 52.8526 1.41825H2.14744ZM52.8526 42H2.14744C0.963212 42 0 41.0271 0 39.832V2.16803C0 0.972918 0.963212 0 2.14744 0H52.8526C54.0368 0 55 0.972918 55 2.16803V39.832C55 41.0271 54.0368 42 52.8526 42Z" fill="#411070"/>
<path fill-rule="evenodd" clip-rule="evenodd" d="M27.1179 15.2773L-7.14509e-09 1.26219L0.640112 4.61669e-08L27.1179 13.6837L53.5957 4.61669e-08L54.2358 1.26219L27.1179 15.2773Z" transform="translate(0.38208 6.51904)" fill="#411070"/>
<path fill-rule="evenodd" clip-rule="evenodd" d="M8.80721 5.2161C8.20175 5.2161 7.59676 5.06908 7.05779 4.7911L0.38274 1.34055C0.0371639 1.16228 -0.0995684 0.734914 0.0774341 0.386498C0.253968 0.037136 0.678213 -0.100434 1.02285 0.078265L7.69791 3.52839C8.3811 3.88106 9.23333 3.88158 9.91699 3.52792L16.592 0.078265C16.9367 -0.100434 17.3605 0.037136 17.537 0.386498C17.714 0.734914 17.5773 1.16228 17.2322 1.34055L10.5571 4.79063C10.0177 5.06908 9.41267 5.2161 8.80721 5.2161Z" transform="translate(18.6929 20.7153)" fill="#411070"/>
</svg>
