<svg width="56" height="43" viewBox="0 0 56 43" fill="none" xmlns="http://www.w3.org/2000/svg">
<path d="M50.2692 0H5.20026C2.32928 0 0 2.34321 0 5.23135V36.6195C0 39.5076 2.32928 41.8508 5.20026 41.8508H50.2692C53.1402 41.8508 55.4694 39.5076 55.4694 36.6195V5.23135C55.4694 2.34321 53.1402 0 50.2692 0ZM5.20026 3.48757H50.2692C51.2226 3.48757 52.0026 4.27227 52.0026 5.23135V9.74339C49.63 11.7596 46.239 14.5388 35.6868 22.9635C33.8559 24.4239 30.2482 27.9441 27.7347 27.9005C25.2213 27.9441 21.6027 24.4239 19.7827 22.9635C9.23046 14.5388 5.83946 11.7596 3.46684 9.74339V5.23135C3.46684 4.27227 4.24688 3.48757 5.20026 3.48757ZM50.2692 38.3633H5.20026C4.24688 38.3633 3.46684 37.5786 3.46684 36.6195V14.2772C5.93696 16.3153 9.83716 19.465 17.6267 25.6881C19.8477 27.4755 23.7695 31.4099 27.7347 31.3881C31.6782 31.4208 35.5676 27.5191 37.8427 25.6881C45.6323 19.465 49.5325 16.3153 52.0026 14.2772V36.6195C52.0026 37.5786 51.2226 38.3633 50.2692 38.3633Z" transform="translate(0 0.737793)" fill="#411070"/>
</svg>
