<svg width="49" height="56" viewBox="0 0 49 56" fill="none" xmlns="http://www.w3.org/2000/svg">
<path d="M20.801 11.6616V16.021C20.801 16.7433 20.2189 17.3289 19.501 17.3289H15.1674C14.4495 17.3289 13.8674 16.7433 13.8674 16.021V11.6616C13.8674 10.9393 14.4495 10.3537 15.1674 10.3537H19.501C20.2189 10.3537 20.801 10.9393 20.801 11.6616ZM33.3683 10.3537H29.0348C28.3168 10.3537 27.7347 10.9393 27.7347 11.6616V16.021C27.7347 16.7433 28.3168 17.3289 29.0348 17.3289H33.3683C34.0863 17.3289 34.6684 16.7433 34.6684 16.021V11.6616C34.6684 10.9393 34.0863 10.3537 33.3683 10.3537ZM19.501 20.8164H15.1674C14.4495 20.8164 13.8674 21.402 13.8674 22.1243V26.4837C13.8674 27.206 14.4495 27.7916 15.1674 27.7916H19.501C20.2189 27.7916 20.801 27.206 20.801 26.4837V22.1243C20.801 21.402 20.2189 20.8164 19.501 20.8164ZM33.3683 20.8164H29.0348C28.3168 20.8164 27.7347 21.402 27.7347 22.1243V26.4837C27.7347 27.206 28.3168 27.7916 29.0348 27.7916H33.3683C34.0863 27.7916 34.6684 27.206 34.6684 26.4837V22.1243C34.6684 21.402 34.0863 20.8164 33.3683 20.8164ZM19.501 31.2791H15.1674C14.4495 31.2791 13.8674 31.8647 13.8674 32.587V36.9464C13.8674 37.6687 14.4495 38.2543 15.1674 38.2543H19.501C20.2189 38.2543 20.801 37.6687 20.801 36.9464V32.587C20.801 31.8647 20.2189 31.2791 19.501 31.2791ZM33.3683 31.2791H29.0348C28.3168 31.2791 27.7347 31.8647 27.7347 32.587V36.9464C27.7347 37.6687 28.3168 38.2543 29.0348 38.2543H33.3683C34.0863 38.2543 34.6684 37.6687 34.6684 36.9464V32.587C34.6684 31.8647 34.0863 31.2791 33.3683 31.2791ZM48.5358 53.6214V55.8011H0V53.6214C0 52.8991 0.582104 52.3135 1.30007 52.3135H3.46684V2.61568C3.46684 1.17106 4.63094 0 6.06697 0H42.4688C43.9048 0 45.0689 1.17106 45.0689 2.61568V52.3135H47.2357C47.9537 52.3135 48.5358 52.8991 48.5358 53.6214ZM41.6021 52.3135V3.48757H6.93368V52.3135H20.801V43.0497C20.801 42.3274 21.3831 41.7418 22.1011 41.7418H26.4347C27.1526 41.7418 27.7347 42.3274 27.7347 43.0497V52.3135H41.6021Z" fill="#411070"/>
</svg>
