<svg width="56" height="56" viewBox="0 0 56 56" fill="none" xmlns="http://www.w3.org/2000/svg">
<path d="M52.845 2.62127L41.9298 0.0878764C40.3324 -0.283223 38.7028 0.548453 38.0568 2.06489L33.0191 13.8893C32.4284 15.2759 32.8264 16.9115 33.9871 17.8667L39.8215 22.669C36.1368 30.2146 30.035 36.353 22.5344 40.0596L17.7606 34.1902C16.811 33.0226 15.185 32.6224 13.8067 33.2164L2.05259 38.2844C0.545055 38.9344 -0.281461 40.573 0.0873244 42.1806L2.60555 53.161C2.9622 54.7155 4.31882 55.8011 5.90446 55.8011C33.2231 55.8011 55.4694 33.5453 55.4694 5.9398C55.4694 4.34445 54.3903 2.97983 52.845 2.62127ZM5.96903 52.3136L3.48028 41.4632L15.1161 36.4465L21.5655 44.3761C32.7938 39.0767 38.8645 32.947 44.1122 21.6946L36.2297 15.2066L41.2166 3.50122L52.0026 6.00475C51.9679 31.5748 31.379 52.2787 5.96903 52.3136Z" transform="translate(0 0.19873)" fill="#411070"/>
</svg>
