<svg width="54" height="54" viewBox="0 0 54 54" fill="none" xmlns="http://www.w3.org/2000/svg">
<path d="M47.9491 4.31518C48.8893 4.31518 49.6728 5.11071 49.6728 6.03884V47.9371C49.6728 48.8772 48.8772 49.6607 47.9491 49.6607H6.05089C5.11071 49.6607 4.32723 48.8652 4.32723 47.9371V6.05089C4.32723 5.11071 5.12277 4.32723 6.05089 4.32723H47.9491V4.31518ZM47.9491 0H6.05089C2.73616 0 0 2.73616 0 6.05089V47.9491C0 51.2638 2.73616 54 6.05089 54H47.9491C51.2638 54 54 51.2638 54 47.9491V6.05089C54 2.73616 51.2638 0 47.9491 0ZM40.8978 16.7786C40.1746 16.7786 37.2938 18.6469 34.5576 18.6469C34.0513 18.6469 33.5451 18.5746 33.0509 18.3576C30.6763 17.4174 28.5911 16.7063 25.9272 16.7063C23.4804 16.7063 20.8888 17.5018 18.7312 18.3576C18.5143 18.4299 18.2973 18.5022 18.1527 18.5746V16.417C19.0929 15.6938 19.6594 14.621 19.6594 13.3192C19.6594 11.1616 17.9357 9.42589 15.7661 9.42589C13.5964 9.42589 11.8728 11.1496 11.8728 13.3192C11.8728 14.5487 12.4513 15.6938 13.3795 16.417V41.9826C13.3795 43.2844 14.4643 44.3571 15.754 44.3571C16.8388 44.3571 17.6946 43.6339 17.9839 42.7058V42.5491C18.0562 42.3321 18.0563 42.1875 18.0563 41.9705V36.6429C18.2009 36.6429 18.3455 36.5705 18.4179 36.4982C20.7924 35.4857 23.6009 34.4853 26.3371 34.4853C30.0857 34.4853 31.5201 36.4259 34.6902 36.4259C36.9201 36.4259 39.0777 35.6304 40.958 34.7746C41.4643 34.5576 41.8259 34.3406 41.8259 33.8344V17.6344C42.0429 17.1402 41.5487 16.7786 40.8978 16.7786Z" fill="#8E8E8E"/>
</svg>
