<svg width="63" height="55" viewBox="0 0 63 55" fill="none" xmlns="http://www.w3.org/2000/svg">
<path fill-rule="evenodd" clip-rule="evenodd" d="M4.05578 2.01576C4.05578 0.902661 3.14799 -1.47875e-08 2.02789 -1.47875e-08C0.907784 -1.47875e-08 -8.84332e-07 0.902661 -8.84332e-07 2.01576C-8.84332e-07 3.12886 0.907784 4.03096 2.02789 4.03096C3.14799 4.03096 4.05578 3.12886 4.05578 2.01576Z" transform="translate(19.5678 3.49072)" fill="#56CCF2"/>
<path fill-rule="evenodd" clip-rule="evenodd" d="M-1.86007e-09 1.66134H60.4365V7.43601e-07H-1.86007e-09V1.66134Z" transform="translate(0.343323 53.3384)" fill="#344154"/>
<path fill-rule="evenodd" clip-rule="evenodd" d="M-1.86007e-09 21.078H6.64149V-9.29501e-07H-1.86007e-09V21.078Z" transform="translate(0.343323 27.4868)" fill="#E3BEF1"/>
<path fill-rule="evenodd" clip-rule="evenodd" d="M8.50319e-07 32.0179H6.64149V-4.64751e-07H8.50319e-07V32.0179Z" transform="translate(54.1383 16.5469)" fill="#BB6BD9"/>
<path fill-rule="evenodd" clip-rule="evenodd" d="M-7.14268e-07 32.4194H6.64149V3.8025e-07H-7.14268e-07V32.4194Z" transform="translate(18 15)" fill="#BB6BD9"/>
<path fill-rule="evenodd" clip-rule="evenodd" d="M5.54089 1.66134C3.40768 1.66134 1.6718 3.38581 1.6718 5.50623C1.6718 7.6261 3.40768 9.35113 5.54089 9.35113C7.67466 9.35113 9.40998 7.6261 9.40998 5.50623C9.40998 3.38581 7.67466 1.66134 5.54089 1.66134ZM5.54089 11.0125C2.48596 11.0125 -2.97612e-07 8.54206 -2.97612e-07 5.50623C-2.97612e-07 2.46991 2.48596 0 5.54089 0C8.59637 0 11.0818 2.46991 11.0818 5.50623C11.0818 8.54206 8.59637 11.0125 5.54089 11.0125Z" transform="translate(16.0548)" fill="#344154"/>
<path fill-rule="evenodd" clip-rule="evenodd" d="M4.05633 2.01576C4.05633 0.902662 3.14799 7.60501e-09 2.02789 7.60501e-09C0.907786 7.60501e-09 6.80255e-07 0.902662 6.80255e-07 2.01576C6.80255e-07 3.1288 0.907786 4.03091 2.02789 4.03091C3.14799 4.03091 4.05633 3.1288 4.05633 2.01576Z" transform="translate(55.4313 3.89209)" fill="#56CCF2"/>
<path fill-rule="evenodd" clip-rule="evenodd" d="M5.54089 1.66134C3.40768 1.66134 1.6718 3.38642 1.6718 5.50629C1.6718 7.6261 3.40768 9.35118 5.54089 9.35118C7.6741 9.35118 9.40998 7.6261 9.40998 5.50629C9.40998 3.38642 7.6741 1.66134 5.54089 1.66134ZM5.54089 11.0125C2.4854 11.0125 2.04077e-07 8.54206 2.04077e-07 5.50629C2.04077e-07 2.46986 2.4854 1.32031e-08 5.54089 1.32031e-08C8.59637 1.32031e-08 11.0818 2.46986 11.0818 5.50629C11.0818 8.54206 8.59637 11.0125 5.54089 11.0125Z" transform="translate(51.9182 0.401855)" fill="#344154"/>
<path fill-rule="evenodd" clip-rule="evenodd" d="M6.80256e-08 22.2819H6.64149V-8.11201e-07H6.80256e-08V22.2819Z" transform="translate(36.2065 26.2827)" fill="#E3BEF1"/>
<path fill-rule="evenodd" clip-rule="evenodd" d="M3.66346 1.66134C2.56509 1.66134 1.6718 2.5496 1.6718 3.64105C1.6718 4.73255 2.56509 5.62026 3.66346 5.62026C4.76183 5.62026 5.65568 4.73255 5.65568 3.64105C5.65568 2.5496 4.76183 1.66134 3.66346 1.66134ZM3.66346 7.2816C1.64338 7.2816 1.25847e-06 5.6485 1.25847e-06 3.64105C1.25847e-06 1.63304 1.64338 4.85031e-07 3.66346 4.85031e-07C5.68411 4.85031e-07 7.32748 1.63304 7.32748 3.64105C7.32748 5.6485 5.68411 7.2816 3.66346 7.2816Z" transform="translate(35.8639 12.0034)" fill="#344154"/>
<path fill-rule="evenodd" clip-rule="evenodd" d="M3.66402 1.66134C2.56509 1.66134 1.6718 2.5496 1.6718 3.64171C1.6718 4.73316 2.56509 5.62087 3.66402 5.62087C4.76239 5.62087 5.65624 4.73316 5.65624 3.64171C5.65624 2.5496 4.76239 1.66134 3.66402 1.66134ZM3.66402 7.28221C1.64338 7.28221 0 5.64916 0 3.64171C0 1.63365 1.64338 -2.366e-07 3.66402 -2.366e-07C5.68411 -2.366e-07 7.32804 1.63365 7.32804 3.64171C7.32804 5.64916 5.68411 7.28221 3.66402 7.28221Z" transform="translate(0 13.207)" fill="#344154"/>
<path fill-rule="evenodd" clip-rule="evenodd" d="M0.868219 8.52267L-2.38089e-07 7.10223L11.7694 -5.91501e-08L12.6371 1.42045L0.868219 8.52267Z" transform="translate(5.34863 7.17822)" fill="#344154"/>
<path fill-rule="evenodd" clip-rule="evenodd" d="M10.7675 8.12174L-2.72102e-07 1.40716L0.888839 3.8025e-08L11.6563 6.71458L10.7675 8.12174Z" transform="translate(25.4876 6.61914)" fill="#344154"/>
<path fill-rule="evenodd" clip-rule="evenodd" d="M0.831996 7.82657L5.44204e-07 6.38564L11.2021 -2.40825e-07L12.0341 1.44094L0.831996 7.82657Z" transform="translate(41.6005 7.20264)" fill="#344154"/>
</svg>
