<svg width="47" height="53" viewBox="0 0 47 53" fill="none" xmlns="http://www.w3.org/2000/svg">
<path fill-rule="evenodd" clip-rule="evenodd" d="M-8.50125e-07 1.34605H7.69255V-5.13479e-09H-8.50125e-07V1.34605Z" transform="translate(16.2578 3.07861)" fill="#411070"/>
<path fill-rule="evenodd" clip-rule="evenodd" d="M24.3204 53H3.74586C1.6804 53 0 51.3219 0 49.2589V3.74113C0 1.67808 1.6804 0 3.74586 0H36.4616C38.5275 0 40.2083 1.67808 40.2083 3.74113V18.3315C40.2083 18.703 39.9064 19.0045 39.5343 19.0045C39.1619 19.0045 38.8604 18.703 38.8604 18.3315V3.74113C38.8604 2.42021 37.7843 1.34605 36.4616 1.34605H3.74586C2.42355 1.34605 1.34792 2.42021 1.34792 3.74113V49.2589C1.34792 50.5793 2.42355 51.6539 3.74586 51.6539H24.3204C24.6925 51.6539 24.9944 51.9555 24.9944 52.327C24.9944 52.6985 24.6925 53 24.3204 53Z" fill="#411070"/>
<path fill-rule="evenodd" clip-rule="evenodd" d="M-8.50125e-07 1.34606H7.69255V9.58494e-07H-8.50125e-07V1.34606Z" transform="translate(16.2578 48.5747)" fill="#411070"/>
<path fill-rule="evenodd" clip-rule="evenodd" d="M39.5343 1.34605H0.673958C0.301484 1.34605 0 1.04499 0 0.673027C0 0.301516 0.301484 1.7116e-07 0.673958 1.7116e-07H39.5343C39.9064 1.7116e-07 40.2083 0.301516 40.2083 0.673027C40.2083 1.04499 39.9064 1.34605 39.5343 1.34605Z" transform="translate(0 6.1582)" fill="#411070"/>
<path fill-rule="evenodd" clip-rule="evenodd" d="M23.9502 1.34606H0.673958C0.301484 1.34606 0 1.04454 0 0.673029C0 0.301518 0.301484 1.67052e-06 0.673958 1.67052e-06H23.9502C24.3227 1.67052e-06 24.6242 0.301518 24.6242 0.673029C24.6242 1.04454 24.3227 1.34606 23.9502 1.34606Z" transform="translate(0 45.4946)" fill="#411070"/>
<path fill-rule="evenodd" clip-rule="evenodd" d="M3.85459 5.29807H1.45081C0.649695 5.29807 2.12531e-07 4.64927 2.12531e-07 3.84927V1.44925C2.12531e-07 0.648798 0.649695 3.76551e-07 1.45081 3.76551e-07H3.85459C4.6557 3.76551e-07 5.30539 0.648798 5.30539 1.44925V3.84927C5.30539 4.64927 4.6557 5.29807 3.85459 5.29807Z" transform="translate(4.92163 11.1025)" fill="#56CCF2"/>
<path fill-rule="evenodd" clip-rule="evenodd" d="M3.85414 5.29807H1.45081C0.649695 5.29807 2.33099e-07 4.64927 2.33099e-07 3.84927V1.44925C2.33099e-07 0.648798 0.649695 3.76551e-07 1.45081 3.76551e-07H3.85414C4.6557 3.76551e-07 5.30494 0.648798 5.30494 1.44925V3.84927C5.30494 4.64927 4.6557 5.29807 3.85414 5.29807Z" transform="translate(13.145 11.1025)" fill="#56CCF2"/>
<path fill-rule="evenodd" clip-rule="evenodd" d="M3.85369 5.29807H1.45081C0.649245 5.29807 -6.03315e-07 4.64927 -6.03315e-07 3.84927V1.44925C-6.03315e-07 0.648798 0.649245 3.76551e-07 1.45081 3.76551e-07H3.85369C4.65525 3.76551e-07 5.30495 0.648798 5.30495 1.44925V3.84927C5.30495 4.64927 4.65525 5.29807 3.85369 5.29807Z" transform="translate(21.3682 11.1025)" fill="#56CCF2"/>
<path fill-rule="evenodd" clip-rule="evenodd" d="M3.85459 5.29762H1.45081C0.649695 5.29762 2.12531e-07 4.64882 2.12531e-07 3.84882V1.4488C2.12531e-07 0.648349 0.649695 -1.78006e-07 1.45081 -1.78006e-07H3.85459C4.6557 -1.78006e-07 5.30539 0.648349 5.30539 1.4488V3.84882C5.30539 4.64882 4.6557 5.29762 3.85459 5.29762Z" transform="translate(4.92163 19.6709)" fill="#56CCF2"/>
<path fill-rule="evenodd" clip-rule="evenodd" d="M3.85414 5.29762H1.45081C0.649695 5.29762 2.33099e-07 4.64882 2.33099e-07 3.84882V1.4488C2.33099e-07 0.648349 0.649695 -1.78006e-07 1.45081 -1.78006e-07H3.85414C4.6557 -1.78006e-07 5.30494 0.648349 5.30494 1.4488V3.84882C5.30494 4.64882 4.6557 5.29762 3.85414 5.29762Z" transform="translate(13.145 19.6709)" fill="#56CCF2"/>
<path fill-rule="evenodd" clip-rule="evenodd" d="M3.85459 5.29762H1.45081C0.649695 5.29762 2.12531e-07 4.64882 2.12531e-07 3.84882V1.4488C2.12531e-07 0.64835 0.649695 3.69705e-07 1.45081 3.69705e-07H3.85459C4.6557 3.69705e-07 5.30539 0.64835 5.30539 1.4488V3.84882C5.30539 4.64882 4.6557 5.29762 3.85459 5.29762Z" transform="translate(4.92163 28.2383)" fill="#56CCF2"/>
<path fill-rule="evenodd" clip-rule="evenodd" d="M3.85414 5.29762H1.45081C0.649695 5.29762 2.33099e-07 4.64882 2.33099e-07 3.84882V1.4488C2.33099e-07 0.64835 0.649695 3.69705e-07 1.45081 3.69705e-07H3.85414C4.6557 3.69705e-07 5.30494 0.64835 5.30494 1.4488V3.84882C5.30494 4.64882 4.6557 5.29762 3.85414 5.29762Z" transform="translate(13.145 28.2383)" fill="#56CCF2"/>
<path fill-rule="evenodd" clip-rule="evenodd" d="M0.673958 6.45702C0.301484 6.45702 5.48468e-08 6.15596 5.48468e-08 5.784V0.673028C5.48468e-08 0.301517 0.301484 3.28627e-07 0.673958 3.28627e-07H2.67786C4.15427 3.28627e-07 5.35571 1.19978 5.35571 2.67416C5.35571 3.04567 5.05378 3.34719 4.68176 3.34719C4.30928 3.34719 4.0078 3.04567 4.0078 2.67416C4.0078 1.94191 3.41112 1.34605 2.67786 1.34605H1.34792V5.784C1.34792 6.15596 1.04598 6.45702 0.673958 6.45702Z" transform="translate(33.6292 20.396)" fill="#411070"/>
<path fill-rule="evenodd" clip-rule="evenodd" d="M9.28174 14.5956H0.673959C0.301934 14.5956 1.2889e-06 14.294 1.2889e-06 13.9225C1.2889e-06 13.551 0.301934 13.2495 0.673959 13.2495H8.74168C8.83603 12.8565 8.98655 12.2826 9.19682 11.6306C10.3331 8.10577 10.959 4.41399 11.0569 0.656708C11.0664 0.285197 11.3908 -0.0252924 11.748 0.00162872C12.12 0.0110511 12.4138 0.320196 12.4044 0.691707C12.3033 4.57687 11.6554 8.39652 10.48 12.0434C10.1197 13.1598 9.94537 14.0432 9.94357 14.0517C9.88157 14.3676 9.60434 14.5956 9.28174 14.5956Z" transform="translate(34.5818 29.5562)" fill="#411070"/>
<path fill-rule="evenodd" clip-rule="evenodd" d="M7.36052 31.0723C7.03926 31.0723 6.7553 30.8426 6.69734 30.5164C6.69105 30.481 6.0427 26.9404 3.74451 24.3748C3.11279 23.6699 2.51251 22.8457 1.96167 21.9259C0.678001 19.7839 7.2672e-07 17.3026 7.2672e-07 14.7505C7.2672e-07 13.0715 1.36768 11.7053 3.04943 11.7053C4.30255 11.7053 5.44603 12.49 5.89578 13.658L5.97486 13.8635V2.67416C5.97486 1.19978 7.1763 7.53103e-08 8.65272 7.53103e-08C10.1291 7.53103e-08 11.3306 1.19978 11.3306 2.67416V7.99018C11.3306 8.36169 11.0286 8.66321 10.6566 8.66321C10.2841 8.66321 9.98266 8.36169 9.98266 7.99018V2.67416C9.98266 1.94191 9.38598 1.34605 8.65272 1.34605C7.91945 1.34605 7.32277 1.94191 7.32277 2.67416V17.4893C7.32277 17.8132 7.09138 18.0919 6.77192 18.1506C6.45067 18.2108 6.13616 18.0335 6.01979 17.7307L4.63773 14.1408C4.38701 13.4893 3.74855 13.0513 3.04943 13.0513C2.11128 13.0513 1.34792 13.8137 1.34792 14.7505C1.34792 17.0594 1.95987 19.3015 3.11818 21.2345C3.62544 22.0811 4.17404 22.8358 4.74916 23.4774C7.31064 26.3365 7.99718 30.1242 8.02504 30.284C8.08884 30.6501 7.84397 30.9978 7.47779 31.0624C7.43825 31.0692 7.39916 31.0723 7.36052 31.0723Z" transform="translate(23.6465 13.0786)" fill="#411070"/>
<path fill-rule="evenodd" clip-rule="evenodd" d="M4.68176 8.19299C4.30928 8.19299 4.0078 7.89147 4.0078 7.51996V2.67416C4.0078 1.94191 3.41112 1.34606 2.67786 1.34606H1.34791V5.784C1.34791 6.15596 1.04598 6.45702 0.673957 6.45702C0.301483 6.45702 -7.67855e-07 6.15596 -7.67855e-07 5.784V0.673028C-7.67855e-07 0.301517 0.301483 6.57253e-07 0.673957 6.57253e-07H2.67786C4.15427 6.57253e-07 5.35571 1.19978 5.35571 2.67416V7.51996C5.35571 7.89147 5.05378 8.19299 4.68176 8.19299Z" transform="translate(37.637 21.8911)" fill="#411070"/>
<path fill-rule="evenodd" clip-rule="evenodd" d="M4.68131 6.45747C4.30884 6.45747 4.00735 6.15596 4.00735 5.78444V2.67416C4.00735 1.94191 3.41068 1.34606 2.67741 1.34606H0.673956C0.301482 1.34606 -1.59056e-06 1.04454 -1.59056e-06 0.673028C-1.59056e-06 0.301517 0.301482 5.20325e-07 0.673956 5.20325e-07H2.67741C4.15383 5.20325e-07 5.35527 1.19978 5.35527 2.67416V5.78444C5.35527 6.15596 5.05378 6.45747 4.68131 6.45747Z" transform="translate(41.6448 24.4463)" fill="#411070"/>
<path fill-rule="evenodd" clip-rule="evenodd" d="M1.34792 6.1591H15.5383V1.34606H1.34792V6.1591ZM16.2123 7.50515H0.673959C0.301485 7.50515 1.20663e-06 7.20364 1.20663e-06 6.83213V0.673029C1.20663e-06 0.301518 0.301485 1.67052e-06 0.673959 1.67052e-06H16.2123C16.5847 1.67052e-06 16.8862 0.301518 16.8862 0.673029V6.83213C16.8862 7.20364 16.5847 7.50515 16.2123 7.50515Z" transform="translate(28.7595 45.4946)" fill="#411070"/>
<path fill-rule="evenodd" clip-rule="evenodd" d="M1.25446 1.1594C1.20279 1.1594 1.161 1.20113 1.161 1.25273C1.161 1.35503 1.34791 1.35503 1.34791 1.25273C1.34791 1.20113 1.30613 1.1594 1.25446 1.1594ZM1.25446 2.50546C0.562529 2.50546 -4.66198e-07 1.94326 -4.66198e-07 1.25273C-4.66198e-07 0.562203 0.562529 1.04065e-06 1.25446 1.04065e-06C1.94594 1.04065e-06 2.50892 0.562203 2.50892 1.25273C2.50892 1.94326 1.94594 2.50546 1.25446 2.50546Z" transform="translate(40.2637 47.9951)" fill="#411070"/>
</svg>
