<svg width="55" height="55" viewBox="0 0 55 55" fill="none" xmlns="http://www.w3.org/2000/svg">
<path fill-rule="evenodd" clip-rule="evenodd" d="M9.28909 19.693C8.93931 19.693 8.62451 19.4482 8.55456 19.0935L7.66012 14.6067C7.49523 13.7873 7.04552 13.0379 6.40093 12.5033C6.00118 12.1785 5.59644 11.9587 5.23167 11.8787L1.35414 10.7545C1.19424 10.7096 1.04933 10.6396 0.914417 10.5497C0.529662 10.2899 0.279823 9.88017 0.224858 9.4205L2.28736e-07 7.48191L0.32984 7.2221C1.26924 6.49263 1.97374 5.38344 2.31353 4.09438L2.44844 3.58475L2.97311 3.53978C3.21795 3.5148 3.49777 3.08511 3.49777 2.50553C3.49777 1.94594 3.24294 1.53624 3.00809 1.47628C2.60834 1.37635 2.3635 0.966652 2.46338 0.566943C2.56337 0.167234 2.97311 -0.0775882 3.37285 0.0223392C4.3273 0.262165 4.99682 1.28142 4.99682 2.50553C4.99682 3.61473 4.44217 4.54905 3.64273 4.8938C3.22795 6.17786 2.5134 7.30204 1.58404 8.13144L1.71391 9.24563C1.71391 9.27061 1.7289 9.2906 1.74889 9.30559L5.60144 10.4298C6.15608 10.5497 6.76575 10.8645 7.35532 11.3491C8.26969 12.1036 8.89934 13.1528 9.12919 14.3119L10.0236 18.7987C10.1036 19.2034 9.84374 19.5981 9.439 19.678C9.38908 19.688 9.33906 19.693 9.28909 19.693Z" transform="translate(24.3694 14.1021)" fill="#56CCF2"/>
<path fill-rule="evenodd" clip-rule="evenodd" d="M0.750403 19.6853C0.700434 19.6853 0.650516 19.6803 0.600498 19.6703C0.195756 19.5904 -0.0690757 19.1957 0.0158703 18.7909L0.910301 14.3042C1.14015 13.1501 1.7698 12.0958 2.68417 11.3414C3.27385 10.8567 3.88341 10.542 4.49802 10.4021L8.26567 9.30785C8.31059 9.28286 8.32059 9.26288 8.32558 9.2379L8.45555 8.12371C7.52609 7.29431 6.80655 6.16513 6.39686 4.88606C5.59732 4.54131 5.04267 3.60699 5.04267 2.4978C5.04267 1.28868 5.67227 0.299398 6.61167 0.0295945C7.00642 -0.0853219 7.42116 0.144511 7.53609 0.544221C7.65101 0.94393 7.42116 1.35863 7.02146 1.46855C6.78656 1.5385 6.54172 1.93821 6.54172 2.4978C6.54172 3.07738 6.81654 3.50707 7.06638 3.53205L7.59105 3.57702L7.72097 4.08664C8.06075 5.37571 8.76535 6.4849 9.70476 7.21937L10.0395 7.47418L9.81463 9.40777C9.75967 9.87244 9.50983 10.2821 9.12507 10.542C8.99016 10.6319 8.84025 10.7018 8.68036 10.7468L4.86778 11.856C4.43806 11.9509 4.04331 12.1658 3.63857 12.4955C2.98898 13.0351 2.54426 13.7796 2.37937 14.599L1.48494 19.0857C1.41498 19.4405 1.10018 19.6853 0.750403 19.6853Z" transform="translate(9.93774 14.1099)" fill="#56CCF2"/>
<path fill-rule="evenodd" clip-rule="evenodd" d="M0.752645 7.85429C0.3529 7.85429 0.0230597 7.53952 0.0031224 7.13981C-0.00187442 7.0049 -0.126795 3.76726 1.86694 1.68378C2.93626 0.564589 4.38034 2.28715e-07 6.1692 2.28715e-07C7.96306 2.28715e-07 9.40714 0.564589 10.4715 1.68378C12.4503 3.76726 12.3153 6.99991 12.3053 7.13481C12.2853 7.54951 11.9255 7.86928 11.5208 7.84429C11.1111 7.82431 10.7913 7.47456 10.8112 7.05986C10.8112 7.03488 10.9162 4.32186 9.37716 2.71303C8.61264 1.90861 7.53333 1.49891 6.1692 1.49891C4.80507 1.49891 3.72575 1.90861 2.9513 2.71802C1.39719 4.34184 1.49717 7.04488 1.50217 7.06986C1.51721 7.48456 1.19736 7.8343 0.787623 7.85429C0.772583 7.85429 0.762639 7.85429 0.752645 7.85429Z" transform="translate(16.0017 7.75439)" fill="#56CCF2"/>
<path fill-rule="evenodd" clip-rule="evenodd" d="M8.28982 3.1619C8.00495 3.1619 7.72013 3.14691 7.42532 3.11194C6.34101 2.99702 5.46157 2.56733 4.61206 2.15263C4.39724 2.05271 4.18238 1.94778 3.95752 1.84286C3.213 1.50311 2.59839 1.41317 2.13868 1.58305C1.82388 1.69796 1.54911 1.9278 1.42419 2.18261C1.2392 2.55734 0.794585 2.70723 0.419823 2.52736C0.0500585 2.34749 -0.104892 1.89782 0.0749938 1.52809C0.374803 0.918531 0.939443 0.423891 1.62401 0.174073C2.46847 -0.135702 3.46284 -0.030778 4.58212 0.478851C4.81198 0.588771 5.04188 0.698691 5.26669 0.808611C6.06618 1.19833 6.76074 1.53308 7.59021 1.62302C8.67452 1.74293 9.57395 1.60303 10.4135 1.17335C10.7832 0.983484 11.2328 1.12838 11.4227 1.49811C11.6127 1.86784 11.4627 2.31751 11.093 2.50738C10.2335 2.94706 9.30912 3.1619 8.28982 3.1619Z" transform="translate(16.4094 10.2783)" fill="#56CCF2"/>
<path fill-rule="evenodd" clip-rule="evenodd" d="M4.27365 5.1539C4.07878 5.1539 3.8839 5.07895 3.734 4.92406L0.211241 1.26672C-0.0785744 0.971939 -0.0685323 0.497283 0.231227 0.207494C0.526039 -0.0772992 1.00069 -0.067306 1.29055 0.22748L4.81331 3.88482C5.10313 4.17961 5.09313 4.65426 4.79332 4.94405C4.64842 5.08395 4.46353 5.1539 4.27365 5.1539Z" transform="translate(17.8972 23.2803)" fill="#56CCF2"/>
<path fill-rule="evenodd" clip-rule="evenodd" d="M0.748998 5.1539C0.564116 5.1539 0.374238 5.08395 0.22933 4.94405C-0.0704791 4.65426 -0.0754763 4.17961 0.209342 3.88482L3.7371 0.22748C4.02696 -0.067306 4.50161 -0.0772992 4.79642 0.207494C5.09618 0.497283 5.10123 0.971939 4.81641 1.26672L1.28866 4.92406C1.14375 5.07895 0.948871 5.1539 0.748998 5.1539Z" transform="translate(21.4219 23.2803)" fill="#56CCF2"/>
<path fill-rule="evenodd" clip-rule="evenodd" d="M0.749523 3.90716C0.334786 3.90716 -5.33718e-07 3.56741 -5.33718e-07 3.1577V0.749455C-5.33718e-07 0.334756 0.334786 -7.62385e-08 0.749523 -7.62385e-08C1.16426 -7.62385e-08 1.49905 0.334756 1.49905 0.749455V3.1577C1.49905 3.56741 1.16426 3.90716 0.749523 3.90716Z" transform="translate(21.4214 26.9355)" fill="#56CCF2"/>
<path fill-rule="evenodd" clip-rule="evenodd" d="M22.1709 1.49891C10.7732 1.49891 1.49905 10.7722 1.49905 22.1739C1.49905 33.5706 10.7732 42.8488 22.1709 42.8488C33.5737 42.8488 42.8477 33.5706 42.8477 22.1739C42.8477 10.7722 33.5737 1.49891 22.1709 1.49891ZM22.1709 44.3477C9.94367 44.3477 0 34.4 0 22.1739C0 9.94777 9.94367 0 22.1709 0C34.3981 0 44.3468 9.94777 44.3468 22.1739C44.3468 34.4 34.3981 44.3477 22.1709 44.3477Z" fill="#411070"/>
<path fill-rule="evenodd" clip-rule="evenodd" d="M0.749523 26.0261C0.334837 26.0261 2.28736e-07 25.6913 2.28736e-07 25.2766C2.28736e-07 24.8619 0.334837 24.5272 0.749523 24.5272C13.8612 24.5272 24.5294 13.8599 24.5294 0.749455C24.5294 0.334757 24.8642 2.28715e-07 25.2789 2.28715e-07C25.6887 2.28715e-07 26.0284 0.334757 26.0284 0.749455C26.0284 14.6893 14.6857 26.0261 0.749523 26.0261Z" transform="translate(21.9961 21.9941)" fill="#411070"/>
<path fill-rule="evenodd" clip-rule="evenodd" d="M14.1985 17.7833C13.2391 17.7833 12.3397 17.4086 11.6651 16.7291L0.217361 5.2874C-0.0724548 4.99262 -0.0724548 4.51796 0.217361 4.22817C0.512173 3.93339 0.986873 3.93339 1.27669 4.22817L12.7244 15.6699C13.1192 16.0646 13.6388 16.2844 14.1985 16.2844C14.7531 16.2844 15.2778 16.0646 15.6725 15.6699C16.0673 15.2801 16.2821 14.7555 16.2821 14.1959C16.2821 13.6413 16.0673 13.1167 15.6725 12.722L4.22486 1.28032C3.935 0.985535 3.935 0.510879 4.22486 0.221089C4.51963 -0.0736962 4.99432 -0.0736962 5.28908 0.221089L16.7319 11.6628C17.4114 12.3423 17.7812 13.2416 17.7812 14.1959C17.7812 15.1552 17.4114 16.0546 16.7319 16.7291C16.0573 17.4086 15.1529 17.7833 14.1985 17.7833Z" transform="translate(37.2188 37.2168)" fill="#411070"/>
</svg>
