<svg width="86" height="81" viewBox="0 0 86 81" fill="none" xmlns="http://www.w3.org/2000/svg">
<path d="M11.6527 40.7063C4.92188 40.7063 0 32.9226 0 27.1641C0 23.3118 2.1875 19.261 6.77277 19.261C13.5036 19.261 18.4254 27.0845 18.4254 32.8431C18.4254 36.6953 16.2801 40.7063 11.6527 40.7063ZM59.2308 55.1621C59.2308 60.2058 54.8558 61 50.5649 61C44.9278 61 40.3845 57.4258 35 57.4258C29.3629 57.4258 24.5673 60.9602 18.4676 60.9602C14.3869 60.9602 10.7692 59.6497 10.7692 55.1621C10.7692 45.75 24.6936 31.7708 35 31.7708C45.3064 31.7708 59.2308 45.7898 59.2308 55.1621ZM24.946 23.3913C18.131 23.3913 14.0085 15.2898 14.0085 9.72991C14.0085 5.28195 16.4484 0 21.875 0C28.732 0 32.8125 8.10156 32.8125 13.6614C32.8125 18.1094 30.3726 23.3913 24.946 23.3913ZM37.1875 13.6614C37.1875 8.10156 41.268 0 48.125 0C53.5516 0 55.9917 5.28195 55.9917 9.72977C55.9917 15.2896 51.869 23.3912 45.054 23.3912C39.6274 23.3913 37.1875 18.1094 37.1875 13.6614ZM70 27.1641C70 32.9226 65.0781 40.7063 58.3473 40.7063C53.7198 40.7063 51.5746 36.6953 51.5746 32.8431C51.5746 27.0847 56.4963 19.261 63.2272 19.261C67.8125 19.261 70 23.3118 70 27.1641Z" transform="translate(18.792 0.886719) rotate(17.5)" fill="#411070"/>
</svg>
