<svg width="43" height="69" viewBox="0 0 43 69" fill="none" xmlns="http://www.w3.org/2000/svg">
<path fill-rule="evenodd" clip-rule="evenodd" d="M-8.5654e-08 1.07183e-07L13.1236 19.5019C13.3966 19.3374 13.6814 19.187 13.9881 19.0629C14.7869 18.7386 15.6691 18.5764 16.6323 18.5764C17.4406 18.5764 18.1958 18.6917 18.8971 18.9212C19.5991 19.1507 20.2166 19.4767 20.7484 19.8982C21.2802 20.319 19.1258 19.6301 19.4561 20.2248C19.7858 20.8201 16.7345 18.4541 16.7345 18.4541L12.4636 21.5828L20.0393 24.9943L19.4561 26.549L19.8532 27.8995L19.6547 29.1065L32.9526 48.969V1.07183e-07H-8.5654e-08Z" transform="translate(5.02368 7.95117)" fill="#56CCF2"/>
<path fill-rule="evenodd" clip-rule="evenodd" d="M-8.5654e-08 1.75608H32.9526V-9.28918e-07H-8.5654e-08V1.75608Z" transform="translate(5.02368 56.042)" fill="#411070"/>
<path fill-rule="evenodd" clip-rule="evenodd" d="M-8.5654e-08 1.75608H32.9526V1.07183e-07H-8.5654e-08V1.75608Z" transform="translate(5.02368 7.07324)" fill="#411070"/>
<path fill-rule="evenodd" clip-rule="evenodd" d="M5.30262 1.75608C3.35683 1.75608 1.77266 3.32544 1.77266 5.25303V63.747C1.77266 65.6751 3.35683 67.2439 5.30262 67.2439H37.6974C39.6438 67.2439 41.2273 65.6751 41.2273 63.747V5.25303C41.2273 3.32544 39.6438 1.75608 37.6974 1.75608H5.30262ZM37.6974 69H5.30262C2.37891 69 0 66.6433 0 63.747V5.25303C0 2.35666 2.37891 0 5.30262 0H37.6974C40.6211 0 43 2.35666 43 5.25303V63.747C43 66.6433 40.6211 69 37.6974 69Z" fill="#411070"/>
<path fill-rule="evenodd" clip-rule="evenodd" d="M3.49214 1.75608C2.54436 1.75608 1.77266 2.51998 1.77266 3.4589C1.77266 4.3984 2.54436 5.1623 3.49214 5.1623C4.43992 5.1623 5.21162 4.3984 5.21162 3.4589C5.21162 2.51998 4.43992 1.75608 3.49214 1.75608ZM3.49214 6.91838C1.56644 6.91838 -9.91783e-08 5.36659 -9.91783e-08 3.4589C-9.91783e-08 1.55179 1.56644 -9.64645e-07 3.49214 -9.64645e-07C5.41784 -9.64645e-07 6.98428 1.55179 6.98428 3.4589C6.98428 5.36659 5.41784 6.91838 3.49214 6.91838Z" transform="translate(18.0078 59.123)" fill="#411070"/>
<path fill-rule="evenodd" clip-rule="evenodd" d="M7.21297e-08 1.75608H8.17078V-1.16115e-07H7.21297e-08V1.75608Z" transform="translate(17.4146 3.5752)" fill="#411070"/>
<path fill-rule="evenodd" clip-rule="evenodd" d="M6.73425 10.8116C6.73425 10.2409 6.58653 9.79016 6.29227 9.45885C5.99741 9.12753 5.46975 8.80441 4.70869 8.49008C3.22556 7.97203 2.10997 7.38491 1.36191 6.72872C0.613846 6.07312 0.239816 5.15469 0.239816 3.9746C0.239816 2.80037 0.667026 1.84447 1.52086 1.10692C2.37469 0.368778 3.46369 1.08969e-06 4.78787 1.08969e-06C6.19123 1.08969e-06 7.31982 0.393363 8.17424 1.18067C9.02807 1.9674 9.44169 3.02339 9.4151 4.34806L9.3956 4.40718H6.67457C6.67457 3.66612 6.50735 3.10358 6.17291 2.72017C5.83847 2.33676 5.36044 2.14476 4.73824 2.14476C4.20171 2.14476 3.78514 2.32037 3.48733 2.671C3.18893 3.02163 3.04003 3.45948 3.04003 3.98455C3.04003 4.46982 3.20902 4.86962 3.54642 5.18454C3.8844 5.49888 4.46347 5.84366 5.28422 6.2177C6.68107 6.67663 7.73876 7.25672 8.45728 7.95857C9.1752 8.66041 9.53446 9.6046 9.53446 10.7917C9.53446 12.018 9.11434 12.9821 8.27351 13.684C7.43268 14.3858 6.31708 14.7365 4.92673 14.7365C3.55646 14.7365 2.38473 14.3577 1.41154 13.6003C0.438354 12.8428 -0.031993 11.6902 0.00168751 10.1426L0.0211873 10.0834H2.75227C2.75227 10.982 2.93603 11.6276 3.30356 12.0216C3.6705 12.4149 4.21175 12.6116 4.92673 12.6116C5.52943 12.6116 5.98087 12.4477 6.28222 12.1199C6.58357 11.7921 6.73425 11.356 6.73425 10.8116Z" transform="translate(16.7329 25.0669)" fill="#411070"/>
</svg>
