<svg width="55" height="65" viewBox="0 0 55 65" fill="none" xmlns="http://www.w3.org/2000/svg">
<path fill-rule="evenodd" clip-rule="evenodd" d="M8.70895e-07 9.13693C0.587883 9.35318 2.69298 10.0298 5.99895 10.0298C9.30986 10.0298 11.4151 9.35318 12.0028 9.13693C10.6363 5.97263 8.69695 2.86352 5.99895 -1.23268e-08C3.30598 2.86352 1.36664 5.97263 8.70895e-07 9.13693Z" transform="translate(21.4985 1.09424)" fill="#56CCF2"/>
<path fill-rule="evenodd" clip-rule="evenodd" d="M5.39097 2.66616C5.39097 1.19363 4.18511 -9.1029e-08 2.69298 -9.1029e-08C1.20581 -9.1029e-08 -5.36643e-07 1.19363 -5.36643e-07 2.66616C-5.36643e-07 4.13869 1.20581 5.33282 2.69298 5.33282C4.18511 5.33282 5.39097 4.13869 5.39097 2.66616Z" transform="translate(24.8045 20.7144)" fill="#56CCF2"/>
<path fill-rule="evenodd" clip-rule="evenodd" d="M1.38668 0.554311C2.01973 0.558288 2.81853 0.437981 3.68269 1.36543e-06C3.68269 1.36543e-06 6.06417 7.23338 7.66633e-08 14.1421C1.23088 8.94553 1.50726 4.30026 1.38668 0.554311Z" transform="translate(27.5528 47.5986)" fill="#BB6BD9"/>
<path fill-rule="evenodd" clip-rule="evenodd" d="M2.75697 0.554311C2.12392 0.558288 1.32004 0.437981 0.460854 1.36543e-06C0.460854 1.36543e-06 -1.92062 7.23338 4.14365 14.1421C2.91267 8.94553 2.63639 4.30026 2.75697 0.554311Z" transform="translate(23.3538 47.5986)" fill="#BB6BD9"/>
<path fill-rule="evenodd" clip-rule="evenodd" d="M17.2783 6.55578C17.2934 6.43696 17.3034 6.31715 17.3034 6.19436C17.3034 4.62588 16.0222 3.3542 14.4346 3.3542C14.1784 3.3542 13.9322 3.38999 13.701 3.45214C13.701 3.43722 13.701 3.4233 13.701 3.40839C13.701 1.86974 12.4399 0.621923 10.8875 0.621923C10.0334 0.621923 9.26469 1.00024 8.75217 1.59482C8.13927 0.637828 7.06408 1.85092e-06 5.83818 1.85092e-06C5.73262 1.85092e-06 5.63219 0.00547005 5.52663 0.0144186C5.47639 0.729305 5.32068 1.4432 5.04933 2.13173C4.00434 4.76309 2.36645 8.37631 1.17755e-06 12.2838C0.844118 14.253 2.81361 15.6345 5.10962 15.6345C6.33558 15.6345 7.461 15.2408 8.37535 14.5786C8.90295 15.2219 9.70682 15.6345 10.6112 15.6345C11.5808 15.6345 12.4349 15.1573 12.9524 14.4285C13.7815 15.1752 14.8818 15.6345 16.0926 15.6345C18.67 15.6345 20.7601 13.5669 20.7601 11.0166C20.7601 8.87344 19.2779 7.07678 17.2783 6.55578Z" transform="translate(34.2399 47.9224)" fill="#E3BEF1"/>
<path fill-rule="evenodd" clip-rule="evenodd" d="M15.7459 2.13173C15.4695 1.44469 15.3188 0.732286 15.2686 0.0188904C15.153 0.00745615 15.0374 1.85092e-06 14.9219 1.85092e-06C13.696 1.85092e-06 12.6208 0.637828 12.0078 1.59482C11.4904 1.00024 10.7267 0.621923 9.87252 0.621923C8.32004 0.621923 7.05896 1.86974 7.05896 3.40839C7.05896 3.4233 7.05896 3.43722 7.05896 3.45214C6.82287 3.38999 6.58171 3.3542 6.32548 3.3542C4.73778 3.3542 3.45163 4.62588 3.45163 6.19436C3.45163 6.31715 3.46665 6.43696 3.48173 6.55578C1.47707 7.07678 0 8.87344 0 11.0166C0 13.5669 2.09002 15.6345 4.66744 15.6345C5.87832 15.6345 6.9736 15.1752 7.80254 14.4285C8.32506 15.1573 9.17923 15.6345 10.1489 15.6345C11.0533 15.6345 11.8571 15.2219 12.3796 14.5786C13.2991 15.2408 14.4245 15.6345 15.6504 15.6345C17.9615 15.6345 19.936 14.2361 20.7751 12.249C18.4187 8.35493 16.7858 4.75514 15.7459 2.13173Z" transform="translate(0 47.9224)" fill="#E3BEF1"/>
<path fill-rule="evenodd" clip-rule="evenodd" d="M5.69731 2.77603L3.18018 5.55454C1.52727 7.37656 1.05996 9.91843 1.95935 12.1884C2.82351 14.3569 4.18502 17.4322 6.13441 20.8346L5.44107 14.7128C5.18484 12.43 6.36055 10.2883 8.35014 9.2816L5.69731 2.77603ZM8.37526 27.2592L6.63181 24.5483C3.64748 19.9199 1.68297 15.5684 0.557544 12.7332C-0.552756 9.93484 0.0200036 6.80236 2.05476 4.55877L6.18968 1.63852e-06L10.3247 10.1302L9.50571 10.4106C7.78743 11.0191 6.73234 12.7198 6.93834 14.5468L8.37526 27.2592Z" transform="translate(14.4849 37.5933)" fill="#344154"/>
<path fill-rule="evenodd" clip-rule="evenodd" d="M2.17899 5.82151C1.60623 9.13395 1.05859 14.8158 2.17899 21.7618C3.30441 14.8158 2.75677 9.13395 2.17899 5.82151ZM2.17899 28.8699L1.44546 25.7812C-1.74999 12.3191 1.32985 2.60501 1.4655 2.19835L2.17899 1.24406e-06L2.8974 2.19835C3.03306 2.60501 6.1129 12.3191 2.91247 25.7812L2.17899 28.8699Z" transform="translate(25.3185 36.1299)" fill="#344154"/>
<path fill-rule="evenodd" clip-rule="evenodd" d="M2.68293 2.01292C2.51713 2.00397 1.00986 1.90703 -8.15698e-07 1.24086L0.839093 6.0686e-07C1.4018 0.372855 2.42172 0.504598 2.76834 0.523489L2.68293 2.01292Z" transform="translate(23.3926 46.6543)" fill="#344154"/>
<path fill-rule="evenodd" clip-rule="evenodd" d="M1.96954 9.2811C3.9641 10.2863 5.13981 12.4295 4.88358 14.7128L4.19024 20.8346C6.13963 17.4322 7.50119 14.3569 8.36028 12.1884C9.26469 9.91843 8.79739 7.37656 7.14447 5.55454L4.62232 2.77603L1.96954 9.2811ZM1.94437 27.2592L3.38632 14.5468C3.59231 12.7198 2.53728 11.0191 0.82397 10.4116L3.34252e-07 10.1302L4.12995 1.63852e-06L8.26487 4.55877C10.2996 6.80236 10.8774 9.93484 9.76711 12.7332C8.64169 15.5684 6.67215 19.9199 3.69284 24.5483L1.94437 27.2592Z" transform="translate(30.2256 37.5933)" fill="#344154"/>
<path fill-rule="evenodd" clip-rule="evenodd" d="M0.0803879 2.01292L6.13307e-07 0.523489L0.0401434 1.2682L6.13307e-07 0.523489C0.346621 0.504598 1.36151 0.372855 1.92924 6.0686e-07L2.76331 1.24086C1.75345 1.90703 0.251211 2.00397 0.0803879 2.01292Z" transform="translate(28.8741 46.6543)" fill="#344154"/>
<path fill-rule="evenodd" clip-rule="evenodd" d="M1.89731 39.2124C1.82195 38.9832 -5.49832 16.1212 9.13217 0.58563L9.67981 0L10.2325 0.58563C14.6236 5.25029 17.4774 11.0092 18.7133 17.7036C18.7787 18.0094 20.4667 25.8637 18.7083 33.8194C17.8893 37.5286 17.4874 39.1433 17.4824 39.1592L16.0204 38.8027C16.0254 38.7873 16.4222 37.1865 17.2362 33.5002C18.9244 25.8716 17.2512 18.0735 17.2362 17.996C16.1007 11.8488 13.5635 6.54683 9.67981 2.20332C-3.5942 17.0723 3.25887 38.5318 3.32921 38.75L1.89731 39.2124Z" transform="translate(17.8177)" fill="#344154"/>
<path fill-rule="evenodd" clip-rule="evenodd" d="M6.47118 2.39025C2.42664 2.39025 0.0954089 1.41088 -7.66633e-07 1.36962L0.597831 0.000497534C0.617978 0.00845177 2.76834 0.898828 6.47118 0.898828C10.179 0.898828 12.3294 0.00845109 12.3495 -2.80673e-07L12.9474 1.36912C12.8519 1.41088 10.5206 2.39025 6.47118 2.39025Z" transform="translate(21.0263 9.479)" fill="#344154"/>
<path fill-rule="evenodd" clip-rule="evenodd" d="M5.09455 1.49142C3.11998 1.49142 1.50726 3.08425 1.50726 5.04249C1.50726 7.00022 3.11998 8.59306 5.09455 8.59306C7.07403 8.59306 8.68686 7.00022 8.68686 5.04249C8.68686 3.08425 7.07403 1.49142 5.09455 1.49142ZM5.09455 10.0845C2.28601 10.0845 7.66633e-08 7.82249 7.66633e-08 5.04249C7.66633e-08 2.26198 2.28601 2.42744e-07 5.09455 2.42744e-07C7.9081 2.42744e-07 10.1941 2.26198 10.1941 5.04249C10.1941 7.82249 7.9081 10.0845 5.09455 10.0845Z" transform="translate(22.403 18.3384)" fill="#344154"/>
</svg>
