<svg width="77" height="56" viewBox="0 0 77 56" fill="none" xmlns="http://www.w3.org/2000/svg">
<path fill-rule="evenodd" clip-rule="evenodd" d="M0 8.05278H54.0986V7.25037e-08H0V8.05278Z" transform="translate(0.892029 29.1611)" fill="#BB6BD9"/>
<path fill-rule="evenodd" clip-rule="evenodd" d="M-7.25936e-07 8.05278H16.8831V-2.24761e-06H-7.25936e-07V8.05278Z" transform="translate(57.1077 40.459)" fill="#56CCF2"/>
<path fill-rule="evenodd" clip-rule="evenodd" d="M2.80272 10.1441H26.2809C24.7288 9.02507 23.6881 7.50694 23.3491 5.83437C23.0399 4.28838 23.0102 2.74286 23.034 1.78185H6.05565C6.07944 2.74286 6.04971 4.28838 5.74041 5.83378C5.4015 7.50634 4.35485 9.02507 2.80272 10.1441ZM27.5297 11.9259H1.55982C0.822352 11.9259 0.192045 11.471 0.0374261 10.82C-0.111245 10.2118 0.192045 9.59829 0.786731 9.2936C2.51132 8.41093 3.67691 7.02227 3.98615 5.48275C4.43216 3.28335 4.22997 0.995462 4.22402 0.972892C4.20618 0.723433 4.28944 0.475754 4.45595 0.290442C4.62835 0.105723 4.86628 1.08756e-06 5.11605 1.08756e-06H23.9736C24.2233 1.08756e-06 24.4611 0.105723 24.6277 0.290442C24.8002 0.475754 24.8834 0.723433 24.8596 0.972892C24.8596 0.995462 24.6574 3.28335 25.0975 5.48335C25.4067 7.02227 26.5783 8.41093 28.3029 9.2936C28.8976 9.59829 29.1949 10.2118 29.0522 10.82C28.8916 11.471 28.2671 11.9259 27.5297 11.9259Z" transform="translate(18.6774 44.0742)" fill="#344154"/>
<path fill-rule="evenodd" clip-rule="evenodd" d="M1.52246 1.26095C1.37973 1.26095 1.26073 1.37737 1.26073 1.52111C1.26073 1.66544 1.37973 1.78185 1.52246 1.78185C1.67113 1.78185 1.78406 1.66544 1.78406 1.52111C1.78406 1.37737 1.67113 1.26095 1.52246 1.26095ZM1.52246 3.04281C0.68389 3.04281 3.26671e-08 2.36036 3.26671e-08 1.52111C3.26671e-08 0.682449 0.68389 -2.24761e-06 1.52246 -2.24761e-06C2.36691 -2.24761e-06 3.04479 0.682449 3.04479 1.52111C3.04479 2.36036 2.36691 3.04281 1.52246 3.04281Z" transform="translate(31.6967 39.5679)" fill="#344154"/>
<path fill-rule="evenodd" clip-rule="evenodd" d="M54.9907 9.5329H4.0855C1.83163 9.5329 0 7.70472 0 5.45722V0.890925C0 0.399134 0.39838 -7.25037e-07 0.89203 -7.25037e-07H13.3983C13.8919 -7.25037e-07 14.2903 0.399134 14.2903 0.890925C14.2903 1.38272 13.8919 1.78185 13.3983 1.78185H1.78406V5.45722C1.78406 6.72174 2.81881 7.75105 4.0855 7.75105H54.9907C55.4782 7.75105 55.8827 8.15019 55.8827 8.64198C55.8827 9.13377 55.4782 9.5329 54.9907 9.5329Z" transform="translate(0 36.3228)" fill="#344154"/>
<path fill-rule="evenodd" clip-rule="evenodd" d="M54.9431 38.1049H0.89203C0.39838 38.1049 0 37.7057 0 37.2139V4.34415C0 1.94875 1.95057 0 4.35305 0H62.0912C64.4878 0 66.4384 1.94875 66.4384 4.34415V20.3778C66.4384 20.8696 66.0399 21.2688 65.5463 21.2688C65.0587 21.2688 64.6543 20.8696 64.6543 20.3778V4.34415C64.6543 2.93114 63.5066 1.78185 62.0912 1.78185H4.35305C2.93769 1.78185 1.78406 2.93114 1.78406 4.34415V36.323H54.9431C55.4367 36.323 55.8351 36.7222 55.8351 37.2139C55.8351 37.7057 55.4367 38.1049 54.9431 38.1049Z" fill="#344154"/>
<path fill-rule="evenodd" clip-rule="evenodd" d="M-7.25936e-07 1.78185H16.8831V3.62518e-08H-7.25936e-07V1.78185Z" transform="translate(57.1077 47.2847)" fill="#344154"/>
<path fill-rule="evenodd" clip-rule="evenodd" d="M2.50952 1.78185C2.11114 1.78185 1.78406 2.10858 1.78406 2.50944V34.0031C1.78406 34.404 2.11114 34.7306 2.50952 34.7306H20.3918C20.7902 34.7306 21.1173 34.404 21.1173 34.0031V2.50944C21.1173 2.10858 20.7902 1.78185 20.3918 1.78185H2.50952ZM20.3918 36.5125H2.50952C1.12396 36.5125 7.25936e-07 35.3864 7.25936e-07 34.0031V2.50944C7.25936e-07 1.12613 1.12396 8.15667e-07 2.50952 8.15667e-07H20.3918C21.7774 8.15667e-07 22.9014 1.12613 22.9014 2.50944V34.0031C22.9014 35.3864 21.7774 36.5125 20.3918 36.5125Z" transform="translate(54.0986 19.4873)" fill="#344154"/>
<path fill-rule="evenodd" clip-rule="evenodd" d="M1.45104 1.12494C1.27263 1.12494 1.12396 1.27224 1.12396 1.4534C1.12396 1.63455 1.27263 1.78185 1.45104 1.78185C1.63539 1.78185 1.78406 1.63455 1.78406 1.4534C1.78406 1.27224 1.63539 1.12494 1.45104 1.12494ZM1.45104 2.90679C0.648209 2.90679 -7.25936e-07 2.25463 -7.25936e-07 1.4534C-7.25936e-07 0.652157 0.648209 5.07526e-07 1.45104 5.07526e-07C2.25386 5.07526e-07 2.90802 0.652157 2.90802 1.4534C2.90802 2.25463 2.25386 2.90679 1.45104 2.90679Z" transform="translate(64.0953 50.2212)" fill="#344154"/>
<path fill-rule="evenodd" clip-rule="evenodd" d="M5.07862 1.78185H0.892028C0.404385 1.78185 -1.81484e-06 1.38331 -1.81484e-06 0.890925C-1.81484e-06 0.399134 0.404385 -2.53763e-07 0.892028 -2.53763e-07H5.07862C5.57221 -2.53763e-07 5.97065 0.399134 5.97065 0.890925C5.97065 1.38331 5.57221 1.78185 5.07862 1.78185Z" transform="translate(62.561 22.9995)" fill="#344154"/>
</svg>
